<svg aria-hidden="true" style="position: absolute; width: 0; height: 0; overflow: hidden;" version="1.1" xmlns="http://www.w3.org/2000/svg" xmlns:xlink="http://www.w3.org/1999/xlink">
<defs>
<symbol id="icon-check-circle" viewBox="0 0 32 32">
<path fill="#2fab73" style="fill: var(--color1, #2fab73)" d="M15.423 0.837c-8.402 0-15.238 6.836-15.238 15.238s6.836 15.238 15.238 15.238c8.402 0 15.238-6.836 15.238-15.238s-6.836-15.238-15.238-15.238zM12.377 22.8l-4.58-4.57c-0.595-0.594-0.597-1.558-0.003-2.154s1.559-0.597 2.155-0.002l2.425 2.42 6.99-6.99c0.595-0.595 1.56-0.595 2.155 0s0.595 1.56 0 2.155l-9.141 9.141z"></path>
</symbol>
<symbol id="icon-check" viewBox="0 0 45 32">
<path fill="#2fab73" style="fill: var(--color1, #2fab73)" d="M17.215 29.695c-0.42 0.001-0.836-0.081-1.224-0.242s-0.741-0.396-1.038-0.693l-13.574-13.578c-0.306-0.295-0.55-0.648-0.718-1.038s-0.257-0.81-0.261-1.235 0.077-0.846 0.237-1.24c0.161-0.393 0.398-0.751 0.698-1.052s0.657-0.539 1.050-0.7 0.814-0.242 1.239-0.239c0.425 0.003 0.845 0.091 1.235 0.259s0.744 0.411 1.039 0.716l11.312 11.312 20.368-20.362c0.6-0.6 1.414-0.938 2.263-0.938s1.663 0.337 2.263 0.937c0.601 0.6 0.938 1.414 0.938 2.263s-0.337 1.663-0.937 2.264l-22.63 22.63c-0.297 0.297-0.65 0.532-1.038 0.693s-0.804 0.242-1.224 0.242z"></path>
</symbol>
<symbol id="icon-location" viewBox="0 0 21 32">
<path fill="#f53838" style="fill: var(--color2, #f53838)" d="M21.333 11.504c0-1.401-0.276-2.788-0.812-4.082s-1.322-2.47-2.312-3.461c-0.99-0.99-2.166-1.776-3.46-2.312s-2.681-0.812-4.082-0.812-2.788 0.276-4.082 0.812c-1.294 0.536-2.47 1.322-3.461 2.312s-1.776 2.166-2.312 3.461c-0.536 1.294-0.812 2.681-0.812 4.082 0 2.114 0.625 4.079 1.684 5.737h-0.012c3.596 5.63 8.995 14.072 8.995 14.072l8.995-14.072h-0.011c1.098-1.712 1.682-3.703 1.682-5.737zM10.667 16.075c-1.212 0-2.375-0.482-3.232-1.339s-1.339-2.020-1.339-3.232 0.482-2.375 1.339-3.232c0.857-0.857 2.020-1.339 3.232-1.339s2.375 0.482 3.232 1.339c0.857 0.857 1.339 2.020 1.339 3.232s-0.482 2.375-1.339 3.232c-0.857 0.857-2.020 1.339-3.232 1.339z"></path>
</symbol>
<symbol id="icon-logo" viewBox="0 0 30 32">
<path fill="#f53838" style="fill: var(--color2, #f53838)" d="M26.938 11.803l-0.019-0.019c-0.001-0.001-0.003-0.002-0.003-0.004l-11.78-11.78-11.78 11.78c-0.001 0.001-0.003 0.004-0.003 0.004l-0.019 0.019c-1.801 1.811-2.946 4.173-3.251 6.709s0.246 5.102 1.567 7.289c1.32 2.187 3.334 3.87 5.72 4.781s5.009 0.998 7.451 0.248c0.205-0.063 0.425-0.063 0.631 0 2.442 0.75 5.064 0.663 7.451-0.248s4.4-2.594 5.72-4.781c1.32-2.187 1.872-4.752 1.567-7.289s-1.449-4.898-3.25-6.709zM7.544 19.572c-0.057 0.057-0.103 0.125-0.134 0.2s-0.047 0.155-0.047 0.236c0.021 2.079 0.609 4.113 1.7 5.883 0.025 0.040 0.036 0.087 0.033 0.134s-0.022 0.092-0.052 0.128c-0.031 0.036-0.072 0.061-0.117 0.073s-0.094 0.008-0.138-0.010c-0.82-0.345-1.565-0.847-2.194-1.476-1.288-1.288-2.012-3.034-2.013-4.855s0.721-3.568 2.006-4.858l8.547-8.546 8.547 8.546c1.286 1.289 2.008 3.037 2.007 4.858s-0.725 3.568-2.013 4.855c-0.628 0.63-1.373 1.131-2.193 1.476-0.044 0.018-0.092 0.021-0.138 0.010s-0.087-0.037-0.117-0.073c-0.030-0.036-0.049-0.081-0.052-0.128s0.008-0.094 0.033-0.134c1.091-1.77 1.679-3.804 1.7-5.883 0-0.081-0.016-0.161-0.047-0.236s-0.077-0.143-0.134-0.2l-4.043-4.288c-0.040-0.034-0.091-0.052-0.143-0.052s-0.103 0.018-0.143 0.052c-0.040 0.033-0.067 0.080-0.077 0.132s-0 0.105 0.025 0.15c1.57 2.841 0.22 6.922-2.032 9.174l-0.012 0.012c-0.311 0.307-0.73 0.48-1.167 0.48s-0.857-0.173-1.167-0.48l-0.011-0.011c-2.252-2.252-3.602-6.332-2.031-9.173 0.026-0.046 0.035-0.099 0.025-0.15s-0.037-0.098-0.077-0.132c-0.040-0.034-0.091-0.052-0.143-0.052s-0.103 0.018-0.143 0.052l-4.043 4.287z"></path>
</symbol>
<symbol id="icon-server" viewBox="0 0 35 32">
<path fill="#f53838" style="fill: var(--color2, #f53838)" d="M31.158 0.925h-26.947c-0.893 0-1.75 0.355-2.382 0.987s-0.987 1.488-0.987 2.382v6.737c0 0.893 0.355 1.75 0.987 2.382s1.488 0.987 2.382 0.987h26.947c0.893 0 1.75-0.355 2.382-0.987s0.987-1.488 0.987-2.382v-6.737c0-0.893-0.355-1.75-0.987-2.382s-1.489-0.987-2.382-0.987zM22.737 7.662c0 0.93-0.754 1.684-1.684 1.684s-1.684-0.754-1.684-1.684c0-0.93 0.754-1.684 1.684-1.684s1.684 0.754 1.684 1.684zM29.474 7.662c0 0.93-0.754 1.684-1.684 1.684s-1.684-0.754-1.684-1.684c0-0.93 0.754-1.684 1.684-1.684s1.684 0.754 1.684 1.684zM31.158 17.767h-26.947c-0.893 0-1.75 0.355-2.382 0.987s-0.987 1.488-0.987 2.382v6.737c0 0.893 0.355 1.75 0.987 2.382s1.488 0.987 2.382 0.987h26.947c0.893 0 1.75-0.355 2.382-0.987s0.987-1.488 0.987-2.382v-6.737c0-0.893-0.355-1.75-0.987-2.382s-1.489-0.987-2.382-0.987zM22.737 24.504c0 0.93-0.754 1.684-1.684 1.684s-1.684-0.754-1.684-1.684c0-0.93 0.754-1.684 1.684-1.684s1.684 0.754 1.684 1.684zM29.474 24.504c0 0.93-0.754 1.684-1.684 1.684s-1.684-0.754-1.684-1.684c0-0.93 0.754-1.684 1.684-1.684s1.684 0.754 1.684 1.684z"></path>
</symbol>
<symbol id="icon-star" viewBox="0 0 32 32">
<path fill="#fea250" style="fill: var(--color3, #fea250)" d="M30.146 12.384l-9.068-1.318-4.054-8.218c-0.111-0.225-0.293-0.407-0.518-0.518-0.564-0.279-1.25-0.046-1.532 0.518l-4.054 8.218-9.068 1.318c-0.25 0.036-0.479 0.154-0.654 0.332-0.212 0.217-0.328 0.51-0.324 0.813s0.128 0.593 0.346 0.804l6.561 6.396-1.55 9.032c-0.036 0.21-0.013 0.426 0.067 0.624s0.214 0.369 0.387 0.494 0.377 0.2 0.589 0.215c0.213 0.015 0.425-0.029 0.614-0.129l8.111-4.264 8.111 4.264c0.221 0.118 0.479 0.157 0.725 0.114 0.622-0.107 1.039-0.696 0.932-1.318l-1.55-9.032 6.561-6.396c0.178-0.175 0.296-0.404 0.332-0.654 0.096-0.625-0.339-1.204-0.964-1.296z"></path>
</symbol>
<symbol id="icon-user" viewBox="0 0 29 32">
<path fill="#f53838" style="fill: var(--color2, #f53838)" d="M14.316 12.378c1.608 0 3.15-0.639 4.287-1.776s1.776-2.679 1.776-4.287c0-1.608-0.639-3.15-1.776-4.287s-2.679-1.776-4.287-1.776c-1.608 0-3.15 0.639-4.287 1.776s-1.776 2.679-1.776 4.287c0 1.608 0.639 3.15 1.776 4.287s2.679 1.776 4.287 1.776zM5.724 30.567c-3.068 0-5.653-2.579-4.479-5.414 0.711-1.716 1.753-3.276 3.067-4.59s2.873-2.356 4.59-3.067c1.716-0.711 3.556-1.077 5.414-1.077s3.697 0.366 5.414 1.077c1.717 0.711 3.276 1.753 4.59 3.067s2.356 2.873 3.067 4.59c1.174 2.835-1.41 5.414-4.479 5.414h-17.184z"></path>
</symbol>
<symbol id="icon-arrow-right-reviews" viewBox="0 0 32 32">
<path stroke-linejoin="round" stroke-linecap="round" stroke-miterlimit="4" stroke-width="2.6667" d="M5.333 16h21.333M18.667 8l8 8-8 8"></path>
</symbol>
<symbol id="icon-arrow-up" viewBox="0 0 32 32">
<path d="M27.414 12.586l-10-10c-0.781-0.781-2.047-0.781-2.828 0l-10 10c-0.781 0.781-0.781 2.047 0 2.828s2.047 0.781 2.828 0l6.586-6.586v19.172c0 1.105 0.895 2 2 2s2-0.895 2-2v-19.172l6.586 6.586c0.39 0.39 0.902 0.586 1.414 0.586s1.024-0.195 1.414-0.586c0.781-0.781 0.781-2.047 0-2.828z"></path>
</symbol>
<symbol id="icon-arrow-right2" viewBox="0 0 32 32">
<path d="M19.414 27.414l10-10c0.781-0.781 0.781-2.047 0-2.828l-10-10c-0.781-0.781-2.047-0.781-2.828 0s-0.781 2.047 0 2.828l6.586 6.586h-19.172c-1.105 0-2 0.895-2 2s0.895 2 2 2h19.172l-6.586 6.586c-0.39 0.39-0.586 0.902-0.586 1.414s0.195 1.024 0.586 1.414c0.781 0.781 2.047 0.781 2.828 0z"></path>
</symbol>
</defs>
</svg>
